# ProBuilder 5.2.3
# https://unity3d.com/unity/features/worldbuilding/probuilder
# 11/09/2024 17:25:55

mtllib ./Quart_Wall_Corner_snaps002.mtl
o Quart_Wall_Corner_snaps002

g Quart_Wall_Corner_snaps002
v 0 1 0
v 0.125 1 -4.768372E-07
v 0.125 2.5625 -4.768372E-07
v 0 2.5625 0
v -0.125 2.5625 -4.768372E-07
v -0.125 1 -4.768372E-07
v -3 2.5625 3.125
v -3 1 2.999998
v -3 2.5625 2.999998
v -3 1 3.125
v -3 1 2.875
v -3 2.5625 2.875
v 0.125 1 2.5
v 0.125 2.5625 2.5
v -0.125 1 2.5
v -0.125 2.5625 2.5
v -0.5 2.5625 3.125
v -0.5 1 3.125
v -0.5 1 2.875
v -0.5 2.5625 2.875
v -3 3 3.249997
v -3 2.75 3.249997
v -3 3 3.125
v -0.125 3 2.5
v -0.5 3 2.999992
v -0.5 3 2.875
v -1.907349E-06 3 2.5
v -0.5 3 3.125
v -1.907349E-06 0 2.5
v -0.5 0 2.875
v -0.5 0 2.999992
v -0.125 0 2.5
v 0.125 0 2.5
v -0.5 0 3.125
v -0.5 0 3.250008
v 0.2499967 0 2.5
v 0.2499967 3 2.5
v -0.5 3 3.250008
v -0.250001 0 2.5
v -0.5 0 2.749991
v -0.5 3 2.749991
v -0.250001 3 2.5
v 0 3 0
v 0.125 3 -4.768372E-07
v 0.125 3 2.5
v 0.125 0 -4.768372E-07
v 0 0 0
v 0.25 0 -4.768372E-07
v 0.25 0.875 -4.768372E-07
v 0.25 2.75 0
v 0.25 3 0
v -0.125 3 -4.768372E-07
v -0.125 0 -4.768372E-07
v -0.25 0 -9.536743E-07
v -0.25 0.875 -9.536743E-07
v -0.25 2.75 -4.768372E-07
v -0.25 3 -4.768372E-07
v -3 3 2.999998
v -3 0 2.999998
v -3 0 3.125
v -3.000001 0 3.249997
v -3.000001 0.875 3.249997
v -3 3 2.875
v -3 0 2.875
v -3 0 2.75
v -3 0.875 2.75
v -3 3 2.75
v -3 2.75 2.75
v 0.2499967 0.875 2.5
v 0.2499967 2.75 2.5
v -0.250001 0.875 2.5
v -0.250001 2.75 2.5
v -0.5 0.875 3.250008
v -0.5 2.75 3.250008
v -0.5 0.875 2.749991
v -0.5 2.75 2.749991

vt 0.6403624 0.605403
vt 0.6356617 0.605403
vt 0.6356617 0.771593
vt 0.6403624 0.771593
vt 0.645063 0.771593
vt 0.645063 0.605403
vt 0.4971016 0.7752455
vt 0.4924011 0.6090555
vt 0.4924011 0.7752455
vt 0.4971016 0.6090555
vt 0.4877005 0.6090555
vt 0.4877005 0.7752455
vt 0.834931 0.391134
vt 0.4677167 0.161625
vt 0.4677167 0.391134
vt 0.834931 0.161625
vt 0.3673433 0.1618813
vt 0.0001289505 0.1618813
vt 0.0001289505 0.3913903
vt 0.3673433 0.3913903
vt 0.3672144 0.391647
vt 8.83178E-08 0.1621381
vt 8.83178E-08 0.391647
vt 0.3672144 0.1621381
vt 0.9805257 0.385938
vt 0.8636785 0.1564292
vt 0.8636785 0.385938
vt 0.9805257 0.1564292
vt 0.3725071 0.1612496
vt 0.463387 0.3907585
vt 0.463387 0.1612496
vt 0.3725071 0.3907585
vt 0.5112032 0.8217787
vt 0.5112032 0.7951882
vt 0.4971016 0.8217787
vt 0.04690642 0.7441787
vt 0.09343939 0.7973588
vt 0.09343939 0.7907109
vt 0.04025882 0.7441787
vt 0.09343939 0.8040079
vt 0.4066123 0.5612072
vt 0.3534317 0.5146748
vt 0.3534317 0.5080273
vt 0.3999647 0.5612072
vt 0.4132599 0.5612072
vt 0.3534318 0.5013779
vt 0.3534317 0.4814351
vt 0.4332026 0.5612072
vt 0.01366854 0.7441787
vt 0.09343939 0.8239507
vt 0.380022 0.5612072
vt 0.3534317 0.5346177
vt 0.09343939 0.7707682
vt 0.06684911 0.7441787
vt 0.0402586 0.4782747
vt 0.0269634 0.4782747
vt 0.0269634 0.7441787
vt 0.4132601 0.8271111
vt 0.4066124 0.8271111
vt 0.648957 0.4990414
vt 0.6356617 0.4990414
vt 0.648957 0.605403
vt 0.6356617 0.8181262
vt 0.6403624 0.8181262
vt 0.4332029 0.827111
vt 0.6215601 0.4990414
vt 0.6215601 0.5921078
vt 0.6215601 0.7915358
vt 0.6215601 0.8181262
vt 0.0136682 0.4782747
vt 0.0469062 0.4782748
vt 0.3999649 0.8271111
vt 0.6622521 0.605403
vt 0.6622521 0.4990414
vt 0.645063 0.8181262
vt 0.3800221 0.8271112
vt 0.6755473 0.4990414
vt 0.6755473 0.5921078
vt 0.6591646 0.7915358
vt 0.6591646 0.8181262
vt 0.06684899 0.4782748
vt 0.3593434 0.8040071
vt 0.3593433 0.7973595
vt 0.08752783 0.5080267
vt 0.08752777 0.501379
vt 0.4924011 0.502694
vt 0.4971016 0.502694
vt 0.4924011 0.8217787
vt 0.08752766 0.4814363
vt 0.5112032 0.5957603
vt 0.5112032 0.502694
vt 0.3593434 0.8239496
vt 0.3593434 0.7907118
vt 0.08752777 0.5146742
vt 0.4877005 0.502694
vt 0.4877005 0.8217787
vt 0.0875278 0.5346168
vt 0.4735989 0.5957603
vt 0.4735989 0.502694
vt 0.4735989 0.8217787
vt 0.4735989 0.7951882
vt 0.3593433 0.7707691
vt 0.03361122 0.7441787
vt 0.834931 0.1285249
vt 0.4677167 0
vt 0.4677167 0.1285249
vt 0.834931 0
vt 0.834931 0.4668044
vt 0.4677167 0.4300829
vt 0.4677167 0.4668044
vt 0.834931 0.4300829
vt 0.3673433 0.0002560884
vt 0.0001289064 0.0002561557
vt 0.0001289064 0.1287812
vt 0.3673433 0.1287811
vt 0.3673433 0.4303391
vt 0.0001290389 0.4303391
vt 0.0001290389 0.4670606
vt 0.3673433 0.4670606
vt 0.3672144 0.1290379
vt 0 0.0005129069
vt 0 0.1290379
vt 0.3672144 0.0005129069
vt 1.766356E-07 0.4305958
vt 0.3672146 0.4305958
vt 0.4676342 0.4671241
vt 0.3919819 0.4244894
vt 0.4439127 0.4612107
vt 0.4439127 0.4244894
vt 0.3919819 0.4612107
vt 1 0.4563902
vt 0.8442038 0.4196689
vt 0.8442038 0.4563902
vt 1 0.4196689
vt 0.3919817 0.005959579
vt 0.4439125 0.1344845
vt 0.4439125 0.005959579
vt 0.3919817 0.1344845
vt 1 0.1296641
vt 0.8442038 0.001139032
vt 0.8442038 0.1296642
vt 1 0.001139032

vn 0 0 -1
vn -1 0 -1.907323E-06
vn 1 0 0
vn 0 0 1
vn 0.7071068 0 0.7071068
vn -0.7071068 0 -0.7071068
vn 0 1 0
vn 0 -1 0
vn 0.7071115 0.7071021 4.720509E-07
vn 0.8320538 -0.5546951 5.554535E-07
vn -0.7071068 0.7071068 0
vn -0.8320484 -0.5547031 0
vn -1.551021E-06 0.7071142 0.7070993
vn -1.825025E-06 -0.5547082 0.832045
vn 0 0.707131 -0.7070825
vn 0 -0.5547017 -0.8320493
vn 0.5773554 0.57734 0.5773554
vn 0.6396028 -0.4264067 0.639598
vn -0.5773253 0.5773826 -0.5773429
vn -0.6395826 -0.4264307 -0.6396022

usemtl Gray_snaps001
f 4/4/1 3/3/1 2/2/1 1/1/1
f 6/6/1 5/5/1 4/4/1 1/1/1
f 10/10/2 7/7/2 9/9/2 8/8/2
f 9/9/2 12/12/2 11/11/2 8/8/2
f 2/16/3 3/13/3 14/15/3 13/14/3
f 16/20/2 5/19/2 6/18/2 15/17/2
f 18/24/4 17/21/4 7/23/4 10/22/4
f 12/13/1 20/15/1 19/14/1 11/16/1
f 13/28/5 14/25/5 17/27/5 18/26/5
f 16/32/6 15/29/6 19/31/6 20/30/6

usemtl DarkGray_snaps001
f 7/7/2 22/34/2 21/33/2
f 23/35/2 7/7/2 21/33/2
f 26/38/7 25/37/7 24/36/7
f 25/37/7 27/39/7 24/36/7
f 25/37/7 28/40/7 27/39/7
f 31/43/8 30/42/8 29/41/8
f 30/42/8 32/44/8 29/41/8
f 34/46/8 31/43/8 33/45/8
f 31/43/8 29/41/8 33/45/8
f 34/46/8 36/48/8 35/47/8
f 34/46/8 33/45/8 36/48/8
f 38/50/7 37/49/7 28/40/7
f 30/42/8 39/51/8 32/44/8
f 30/42/8 40/52/8 39/51/8
f 42/54/7 41/53/7 26/38/7
f 24/36/7 42/54/7 26/38/7
f 45/57/7 44/56/7 43/55/7
f 43/55/7 27/39/7 45/57/7
f 46/58/8 33/45/8 29/41/8
f 29/41/8 47/59/8 46/58/8
f 2/2/1 46/61/1 47/60/1
f 47/60/1 1/62/1 2/2/1
f 44/63/1 3/3/1 4/4/1
f 4/4/1 43/64/1 44/63/1
f 46/58/8 48/65/8 36/48/8
f 36/48/8 33/45/8 46/58/8
f 2/2/1 49/67/1 48/66/1
f 48/66/1 46/61/1 2/2/1
f 44/63/1 51/69/1 50/68/1
f 50/68/1 3/3/1 44/63/1
f 45/57/7 37/49/7 51/70/7
f 51/70/7 44/56/7 45/57/7
f 52/71/7 24/36/7 27/39/7
f 27/39/7 43/55/7 52/71/7
f 32/44/8 53/72/8 47/59/8
f 47/59/8 29/41/8 32/44/8
f 6/73/1 1/62/1 47/60/1
f 47/60/1 53/74/1 6/73/1
f 52/75/1 43/64/1 4/4/1
f 4/4/1 5/5/1 52/75/1
f 54/76/8 53/72/8 32/44/8
f 32/44/8 39/51/8 54/76/8
f 55/78/1 6/73/1 53/74/1
f 53/74/1 54/77/1 55/78/1
f 57/80/1 52/75/1 5/5/1
f 5/5/1 56/79/1 57/80/1
f 42/54/7 24/36/7 52/71/7
f 52/71/7 57/81/7 42/54/7
f 23/82/7 28/40/7 25/37/7
f 25/37/7 58/83/7 23/82/7
f 34/46/8 60/85/8 59/84/8
f 59/84/8 31/43/8 34/46/8
f 10/10/2 8/8/2 59/86/2
f 59/86/2 60/87/2 10/10/2
f 23/35/2 58/88/2 9/9/2
f 9/9/2 7/7/2 23/35/2
f 34/46/8 35/47/8 61/89/8
f 61/89/8 60/85/8 34/46/8
f 60/87/2 61/91/2 62/90/2
f 62/90/2 10/10/2 60/87/2
f 23/82/7 21/92/7 38/50/7
f 38/50/7 28/40/7 23/82/7
f 26/38/7 63/93/7 58/83/7
f 58/83/7 25/37/7 26/38/7
f 64/94/8 30/42/8 31/43/8
f 31/43/8 59/84/8 64/94/8
f 11/11/2 64/95/2 59/86/2
f 59/86/2 8/8/2 11/11/2
f 63/96/2 12/12/2 9/9/2
f 9/9/2 58/88/2 63/96/2
f 40/52/8 30/42/8 64/94/8
f 64/94/8 65/97/8 40/52/8
f 65/99/2 64/95/2 11/11/2
f 11/11/2 66/98/2 65/99/2
f 68/101/2 12/12/2 63/96/2
f 63/96/2 67/100/2 68/101/2
f 67/102/7 63/93/7 26/38/7
f 26/38/7 41/53/7 67/102/7
f 37/49/7 45/103/7 27/39/7
f 27/39/7 28/40/7 37/49/7
f 49/104/3 69/106/3 36/105/3
f 36/105/3 48/107/3 49/104/3
f 51/108/3 37/110/3 70/109/3
f 70/109/3 50/111/3 51/108/3
f 13/14/9 69/106/9 49/104/9
f 49/104/9 2/16/9 13/14/9
f 3/13/10 50/111/10 70/109/10
f 70/109/10 14/15/10 3/13/10
f 55/114/2 54/113/2 39/112/2
f 39/112/2 71/115/2 55/114/2
f 57/118/2 56/117/2 72/116/2
f 72/116/2 42/119/2 57/118/2
f 71/115/11 15/17/11 6/18/11
f 6/18/11 55/114/11 71/115/11
f 56/117/12 5/19/12 16/20/12
f 16/20/12 72/116/12 56/117/12
f 73/120/4 62/122/4 61/121/4
f 61/121/4 35/123/4 73/120/4
f 38/119/4 21/118/4 22/124/4
f 22/124/4 74/125/4 38/119/4
f 10/22/13 62/122/13 73/120/13
f 73/120/13 18/24/13 10/22/13
f 17/21/14 74/125/14 22/124/14
f 22/124/14 7/23/14 17/21/14
f 75/106/1 40/105/1 65/107/1
f 65/107/1 66/104/1 75/106/1
f 41/126/1 76/109/1 68/111/1
f 68/111/1 67/108/1 41/126/1
f 66/104/15 11/16/15 19/14/15
f 19/14/15 75/106/15 66/104/15
f 76/109/16 20/15/16 12/13/16
f 12/13/16 68/111/16 76/109/16
f 72/127/6 76/129/6 41/128/6
f 41/128/6 42/130/6 72/127/6
f 37/131/5 38/133/5 74/132/5
f 74/132/5 70/134/5 37/131/5
f 39/135/6 40/137/6 75/136/6
f 75/136/6 71/138/6 39/135/6
f 69/139/5 73/141/5 35/140/5
f 35/140/5 36/142/5 69/139/5
f 73/141/17 69/139/17 13/28/17
f 13/28/17 18/26/17 73/141/17
f 70/134/18 74/132/18 17/27/18
f 17/27/18 14/25/18 70/134/18
f 15/29/19 71/138/19 75/136/19
f 75/136/19 19/31/19 15/29/19
f 16/32/20 20/30/20 76/129/20
f 76/129/20 72/127/20 16/32/20

