# ProBuilder 5.2.3
# https://unity3d.com/unity/features/worldbuilding/probuilder
# 11/09/2024 17:40:15

mtllib ./Classic_WallWindowFrame_02_snaps001.mtl
o Classic_WallWindowFrame_02_snaps001

g Classic_WallWindowFrame_02_snaps001
v -2.999985 2.71875 0.09374881
v -2.999981 2.71875 -4.768372E-07
v -2.999996 2.8125 -2.384186E-07
v -2.999999 2.8125 0.09374976
v 7.003545E-07 2.8125 0.09375095
v -3.814697E-06 2.8125 4.814342E-07
v -1.81197E-05 2.71875 2.430133E-07
v -1.359725E-05 2.71875 0.09374998
v -4.61936E-07 2.8125 -0.09374999
v -1.477443E-05 2.71875 -0.09374915
v -2.999986 2.71875 -0.09374928
v -3 2.8125 -0.09375048
v -2.999999 1.25 0.09374976
v -2.999996 1.25 -2.384186E-07
v -2.999979 1.3125 0.09374857
v -2.999976 1.3125 -4.768372E-07
v -2.312639E-05 1.3125 2.579109E-07
v -1.860395E-05 1.3125 0.09374973
v -3.814697E-06 1.25 4.814342E-07
v 7.003545E-07 1.25 0.09375095
v -1.978114E-05 1.3125 -0.09374876
v -4.61936E-07 1.25 -0.09374999
v -2.99998 1.3125 -0.09374905
v -3 1.25 -0.09375048
v -0.5000106 2.71875 0.09374893
v -0.4999999 2.8125 0.09374994
v -0.5000106 2.71875 -0.09374875
v -0.4999999 2.8125 -0.09374958
v -2.5 2.8125 0.09374857
v -2.499985 2.71875 0.09374762
v -2.499985 2.71875 -0.09374833
v -2.5 2.8125 -0.09374905
v -0.4999999 1.25 0.09374994
v -0.5000143 1.3125 0.09374869
v -0.5000143 1.3125 -0.09374839
v -0.4999999 1.25 -0.09374958
v -2.499979 1.3125 0.09374738
v -2.5 1.25 0.09374857
v -2.5 1.25 -0.09374905
v -2.499979 1.3125 -0.09374785
v 1.41561E-06 -1.176198E-09 0.125001
v 1.41561E-06 1.21875 0.125001
v 7.003545E-07 0 0.09375095
v -2.999999 3 0.1249998
v -2.999999 2.84375 0.1249998
v -2.999999 3 0.09374976
v -3.000001 -1.176198E-09 -0.1250005
v -3.000001 1.21875 -0.1250005
v -3 0 -0.09375048
v -1.177192E-06 3 -0.125
v -1.177192E-06 2.84375 -0.125
v -4.61936E-07 3 -0.09374999
v -2.999999 0 0.09374976
v -2.999996 0 -2.384186E-07
v -3.814697E-06 0 4.814342E-07
v -2.999999 1.21875 0.1249998
v -2.999999 -1.176198E-09 0.1249998
v -2.999996 3 -2.384186E-07
v 7.003545E-07 3 0.09375095
v -3.814697E-06 3 4.814342E-07
v 1.41561E-06 2.84375 0.125001
v 1.41561E-06 3 0.125001
v -4.61936E-07 0 -0.09374999
v -1.177192E-06 1.21875 -0.125
v -1.177192E-06 -1.176198E-09 -0.125
v -3 3 -0.09375048
v -3.000001 2.84375 -0.1250005
v -3.000001 3 -0.1250005
v -0.4999999 3 1.192093E-07
v -0.4999999 3 0.09374994
v -0.4999999 0 0.09374994
v -0.4999999 0 1.192093E-07
v -0.4999999 -1.176198E-09 0.1249998
v -0.4999999 3 0.1249998
v -0.4999999 3 -0.09374958
v -0.4999999 0 -0.09374958
v -0.4999999 -1.176198E-09 -0.1249994
v -0.4999999 3 -0.1249994
v -2.5 3 -2.384186E-07
v -2.5 3 0.09374857
v -2.5 0 0.09374857
v -2.5 0 -2.384186E-07
v -2.5 -1.176198E-09 0.1249983
v -2.5 3 0.1249983
v -2.5 3 -0.09374905
v -2.5 0 -0.09374905
v -2.5 -1.176198E-09 -0.1249988
v -2.5 3 -0.1249988
v -0.4999999 1.21875 0.1249998
v -0.4999999 2.84375 0.1249998
v -0.4999999 1.21875 -0.1249994
v -0.4999999 2.84375 -0.1249994
v -2.5 1.21875 0.1249983
v -2.5 2.84375 0.1249983
v -2.5 1.21875 -0.1249988
v -2.5 2.84375 -0.1249988

vt 0.4877552 0.5745143
vt 0.4877552 0.5549694
vt 0.1988649 0.5549694
vt 0.1988649 0.574515
vt 0.200291 0.587669
vt 0.200291 0.6072114
vt 0.4891816 0.6072114
vt 0.4891816 0.587669
vt 0.7766455 0.5745143
vt 0.7766455 0.5549694
vt 0.6322005 0.5745143
vt 0.6322005 0.5549694
vt 0.6336267 0.6072114
vt 0.6336267 0.587669
vt 0.778072 0.6072114
vt 0.778072 0.5876692
vt 0.9999998 0.9374997
vt 0.8333294 0.9062497
vt 0.8333329 0.9374997
vt 0.999995 0.9062497
vt 0.16667 0.9062497
vt 4.788238E-06 0.9062497
vt 0.1666664 0.9374997
vt 0 0.9374997
vt 0.9999933 0.4374999
vt 0.9999998 0.4166666
vt 0.8333329 0.4166666
vt 0.8333281 0.4374999
vt 0.1666713 0.4374999
vt 0.1666664 0.4166666
vt 6.457168E-06 0.4374999
vt 0 0.4166666
vt 0.833328 0.8437511
vt 0.1666701 0.8437505
vt 0.1666713 0.4999989
vt 0.8333262 0.4999983
vt 0.1934841 0.7466126
vt 0.6622339 0.6841141
vt 0.1934841 0.6841142
vt 0.6622339 0.7466128
vt 0.6622339 0.7627802
vt 0.1934841 0.8252794
vt 0.6622339 0.8252795
vt 0.1934841 0.7627804
vt 0.8251008 0.5827809
vt 0.7847905 0.5827809
vt 0.8251008 0.5876698
vt 0.728922 0.7559349
vt 0.7521002 0.7559349
vt 0.7752792 0.7503191
vt 0.728922 0.7503198
vt 0.8236743 0.5745137
vt 0.8236743 0.5549694
vt 0.8251008 0.6072114
vt 0.7833642 0.5793827
vt 0.8236743 0.5793827
vt 0.8236743 0.5744966
vt 0.7766455 0.5744975
vt 0.1787096 0.5549694
vt 0.1787096 0.574515
vt 0.780427 0.8148677
vt 0.780427 0.7699198
vt 0.7340697 0.7699187
vt 0.7340697 0.8148677
vt 0.7572487 0.7642962
vt 0.7340697 0.7642962
vt 0.5031215 0.5191337
vt 0.18064 0.5191337
vt 0.503121 0.5386781
vt 0.1806387 0.5386767
vt 0.4980476 0.624458
vt 0.1755653 0.6244599
vt 0.1755666 0.6440012
vt 0.4980481 0.6440012
vt 0.4980476 0.619571
vt 0.1755651 0.619571
vt 0.503121 0.5411209
vt 0.1806387 0.5411209
vt 0.8256037 0.5386794
vt 0.8256031 0.5191337
vt 0.8205296 0.6440012
vt 0.8205301 0.6244567
vt 0.8205301 0.619571
vt 0.8256035 0.5411209
vt 0.6643625 0.5191337
vt 0.6643625 0.5386788
vt 0.659289 0.6244574
vt 0.659289 0.6440012
vt 0.6592886 0.619571
vt 0.6643622 0.5411209
vt 0.3418799 0.5386775
vt 0.3418807 0.5191337
vt 0.3368071 0.6440012
vt 0.3368064 0.624459
vt 0.3368062 0.619571
vt 0.3418799 0.5411209
vt 1 0.4062499
vt 0.8333329 3.973642E-08
vt 0.8333329 0.4062499
vt 1 3.973642E-08
vt 0.8333329 0.9999997
vt 1 0.9999997
vt 1 0.9479164
vt 0.8333329 0.9479164
vt 0.1666664 0
vt 2.582867E-07 0
vt 2.582867E-07 0.4062499
vt 0.1666664 0.4062499
vt 0.1666664 0.9479164
vt 2.582867E-07 0.9479164
vt 2.582867E-07 0.9999997
vt 0.1666664 0.9999997

vn -1 -8.070192E-05 -3.560407E-05
vn 1 -5.084897E-05 -3.974948E-05
vn -2.063816E-06 -1.060935E-05 1
vn -6.05986E-07 -6.018705E-06 -1
vn 0 -1 0
vn 0 1 0
vn -9.693788E-07 0.7071051 0.7071085
vn -1.022061E-06 -0.7071058 0.7071078
vn -7.059622E-07 0.7071058 -0.7071078
vn -4.478118E-07 -0.7071053 -0.7071083

usemtl BrownLight_snaps001
f 4/4/1 3/3/1 2/2/1 1/1/1
f 8/8/2 7/7/2 6/6/2 5/5/2
f 10/1/2 9/4/2 6/3/2 7/2/2
f 3/6/1 12/5/1 11/8/1 2/7/1
f 15/11/1 16/12/1 14/10/1 13/9/1
f 1/1/1 2/2/1 16/12/1 15/11/1
f 8/8/2 18/14/2 17/13/2 7/7/2
f 18/14/2 20/16/2 19/15/2 17/13/2
f 17/12/2 19/10/2 22/9/2 21/11/2
f 7/2/2 17/12/2 21/11/2 10/1/2
f 24/16/1 14/15/1 16/13/1 23/14/1
f 23/14/1 16/13/1 2/7/1 11/8/1
f 8/20/3 5/17/3 26/19/3 25/18/3
f 28/23/4 9/24/4 10/22/4 27/21/4
f 30/21/3 29/23/3 4/24/3 1/22/3
f 25/18/3 26/19/3 29/23/3 30/21/3
f 12/17/4 32/19/4 31/18/4 11/20/4
f 32/19/4 28/23/4 27/21/4 31/18/4
f 34/28/3 33/27/3 20/26/3 18/25/3
f 25/18/3 34/28/3 18/25/3 8/20/3
f 21/31/4 22/32/4 36/30/4 35/29/4
f 10/22/4 21/31/4 35/29/4 27/21/4
f 15/31/3 13/32/3 38/30/3 37/29/3
f 1/22/3 15/31/3 37/29/3 30/21/3
f 38/30/3 33/27/3 34/28/3 37/29/3
f 23/25/4 40/28/4 39/27/4 24/26/4
f 11/20/4 31/18/4 40/28/4 23/25/4
f 35/29/4 36/30/4 39/27/4 40/28/4
f 25/34/5 30/33/5 31/18/5 27/21/5
f 35/29/6 40/28/6 37/36/6 34/35/6
f 30/40/2 37/37/2 40/39/2 31/38/2
f 34/44/1 25/41/1 27/43/1 35/42/1

usemtl Brown_snaps001
f 20/16/2 42/46/2 41/45/2
f 43/47/2 20/16/2 41/45/2
f 4/50/1 45/49/1 44/48/1
f 46/51/1 4/50/1 44/48/1
f 24/16/1 48/46/1 47/45/1
f 49/47/1 24/16/1 47/45/1
f 9/50/2 51/49/2 50/48/2
f 52/51/2 9/50/2 50/48/2
f 53/52/1 13/9/1 14/10/1
f 14/10/1 54/53/1 53/52/1
f 43/47/2 55/54/2 19/15/2
f 19/15/2 20/16/2 43/47/2
f 53/57/1 57/56/1 56/55/1
f 56/55/1 13/58/1 53/57/1
f 4/4/1 46/60/1 58/59/1
f 58/59/1 3/3/1 4/4/1
f 59/63/2 5/62/2 6/61/2
f 6/61/2 60/64/2 59/63/2
f 59/63/2 62/66/2 61/65/2
f 61/65/2 5/62/2 59/63/2
f 63/52/2 22/9/2 19/10/2
f 19/10/2 55/53/2 63/52/2
f 49/47/1 54/54/1 14/15/1
f 14/15/1 24/16/1 49/47/1
f 63/57/2 65/56/2 64/55/2
f 64/55/2 22/58/2 63/57/2
f 9/4/2 52/60/2 60/59/2
f 60/59/2 6/3/2 9/4/2
f 66/63/1 12/62/1 3/61/1
f 3/61/1 58/64/1 66/63/1
f 66/63/1 68/66/1 67/65/1
f 67/65/1 12/62/1 66/63/1
f 59/70/6 60/68/6 69/67/6
f 69/67/6 70/69/6 59/70/6
f 55/73/5 43/72/5 71/71/5
f 71/71/5 72/74/5 55/73/5
f 43/72/5 41/76/5 73/75/5
f 73/75/5 71/71/5 43/72/5
f 62/78/6 59/70/6 70/69/6
f 70/69/6 74/77/6 62/78/6
f 69/67/6 60/80/6 52/79/6
f 52/79/6 75/69/6 69/67/6
f 55/81/5 72/74/5 76/71/5
f 76/71/5 63/82/5 55/81/5
f 76/71/5 77/75/5 65/83/5
f 65/83/5 63/82/5 76/71/5
f 75/69/6 52/79/6 50/84/6
f 50/84/6 78/77/6 75/69/6
f 70/69/6 69/67/6 79/85/6
f 79/85/6 80/86/6 70/69/6
f 80/86/6 79/85/6 58/80/6
f 58/80/6 46/79/6 80/86/6
f 82/88/5 81/87/5 53/82/5
f 53/82/5 54/81/5 82/88/5
f 72/74/5 71/71/5 81/87/5
f 81/87/5 82/88/5 72/74/5
f 83/89/5 57/83/5 53/82/5
f 53/82/5 81/87/5 83/89/5
f 73/75/5 83/89/5 81/87/5
f 81/87/5 71/71/5 73/75/5
f 44/84/6 84/90/6 80/86/6
f 80/86/6 46/79/6 44/84/6
f 80/86/6 84/90/6 74/77/6
f 74/77/6 70/69/6 80/86/6
f 79/92/6 85/91/6 66/70/6
f 66/70/6 58/68/6 79/92/6
f 69/67/6 75/69/6 85/91/6
f 85/91/6 79/92/6 69/67/6
f 86/94/5 82/93/5 54/73/5
f 54/73/5 49/72/5 86/94/5
f 76/71/5 72/74/5 82/93/5
f 82/93/5 86/94/5 76/71/5
f 77/75/5 76/71/5 86/94/5
f 86/94/5 87/95/5 77/75/5
f 87/95/5 86/94/5 49/72/5
f 49/72/5 47/76/5 87/95/5
f 75/69/6 78/77/6 88/96/6
f 88/96/6 85/91/6 75/69/6
f 85/91/6 88/96/6 68/78/6
f 68/78/6 66/70/6 85/91/6
f 42/97/3 89/99/3 73/98/3
f 73/98/3 41/100/3 42/97/3
f 42/97/7 20/26/7 33/27/7
f 33/27/7 89/99/7 42/97/7
f 61/103/3 62/102/3 74/101/3
f 74/101/3 90/104/3 61/103/3
f 5/17/8 61/103/8 90/104/8
f 90/104/8 26/19/8 5/17/8
f 64/107/4 65/106/4 77/105/4
f 77/105/4 91/108/4 64/107/4
f 36/30/9 22/32/9 64/107/9
f 64/107/9 91/108/9 36/30/9
f 50/111/4 51/110/4 92/109/4
f 92/109/4 78/112/4 50/111/4
f 28/23/10 92/109/10 51/110/10
f 51/110/10 9/24/10 28/23/10
f 83/105/3 93/108/3 56/107/3
f 56/107/3 57/106/3 83/105/3
f 73/98/3 89/99/3 93/108/3
f 93/108/3 83/105/3 73/98/3
f 56/107/7 93/108/7 38/30/7
f 38/30/7 13/32/7 56/107/7
f 33/27/7 38/30/7 93/108/7
f 93/108/7 89/99/7 33/27/7
f 84/112/3 44/111/3 45/110/3
f 45/110/3 94/109/3 84/112/3
f 74/101/3 84/112/3 94/109/3
f 94/109/3 90/104/3 74/101/3
f 4/24/8 29/23/8 94/109/8
f 94/109/8 45/110/8 4/24/8
f 26/19/8 90/104/8 94/109/8
f 94/109/8 29/23/8 26/19/8
f 95/99/4 87/98/4 47/100/4
f 47/100/4 48/97/4 95/99/4
f 91/108/4 77/105/4 87/98/4
f 87/98/4 95/99/4 91/108/4
f 91/108/9 95/99/9 39/27/9
f 39/27/9 36/30/9 91/108/9
f 39/27/9 95/99/9 48/97/9
f 48/97/9 24/26/9 39/27/9
f 88/101/4 96/104/4 67/103/4
f 67/103/4 68/102/4 88/101/4
f 78/112/4 92/109/4 96/104/4
f 96/104/4 88/101/4 78/112/4
f 92/109/10 28/23/10 32/19/10
f 32/19/10 96/104/10 92/109/10
f 32/19/10 12/17/10 67/103/10
f 67/103/10 96/104/10 32/19/10

