# ProBuilder 5.2.3
# https://unity3d.com/unity/features/worldbuilding/probuilder
# 11/09/2024 17:46:20

mtllib ./Classic_WallDoorFrame_01_snaps001.mtl
o Classic_WallDoorFrame_01_snaps001

g Classic_WallDoorFrame_01_snaps001
v 1.41561E-06 -1.176198E-09 0.125001
v 1.41561E-06 1.21875 0.125001
v 7.003545E-07 1.25 0.09375095
v 7.003545E-07 0 0.09375095
v -2.999999 3 0.1249998
v -2.999999 2.84375 0.1249998
v -2.999999 2.8125 0.09374976
v -2.999999 3 0.09374976
v -3.000001 -1.176198E-09 -0.1250005
v -3.000001 1.21875 -0.1250005
v -3 1.25 -0.09375048
v -3 0 -0.09375048
v -1.177192E-06 3 -0.125
v -1.177192E-06 2.84375 -0.125
v -4.61936E-07 2.8125 -0.09374999
v -4.61936E-07 3 -0.09374999
v -2.125 1.25 -0.09375024
v -2.125 1.21875 -0.1250002
v -2.125 1.21875 0.125
v -2.125 1.25 0.09375
v -0.8749999 1.21875 0.1250008
v -0.8749999 1.25 -0.09374994
v -0.8749999 1.25 0.09375077
v -0.8749999 1.21875 -0.1249999
v -2.999996 1.25 -2.384186E-07
v -2.999999 1.25 0.09374976
v -2.999999 0 0.09374976
v -2.999996 0 -2.384186E-07
v -3.814697E-06 1.25 4.814342E-07
v -3.814697E-06 0 4.814342E-07
v -2.999999 1.21875 0.1249998
v -2.999999 -1.176198E-09 0.1249998
v -2.999996 3 -2.384186E-07
v -2.999996 2.8125 -2.384186E-07
v -3.814697E-06 2.8125 4.814342E-07
v 7.003545E-07 2.8125 0.09375095
v 7.003545E-07 3 0.09375095
v -3.814697E-06 3 4.814342E-07
v 1.41561E-06 2.84375 0.125001
v 1.41561E-06 3 0.125001
v -4.61936E-07 1.25 -0.09374999
v -4.61936E-07 0 -0.09374999
v -1.177192E-06 1.21875 -0.125
v -1.177192E-06 -1.176198E-09 -0.125
v -3 2.8125 -0.09375048
v -3 3 -0.09375048
v -3.000001 2.84375 -0.1250005
v -3.000001 3 -0.1250005
v -1.5 3 0
v -1.499999 3 0.09375036
v -2.125 3 -2.384186E-07
v -2.125 3 0.09375
v -2.125 0 0.09375
v -2.125 0 -2.384186E-07
v -2.125 -1.176198E-09 0.125
v -2.125 3 0.125
v -1.499999 3 0.1250004
v -2.125 3 -0.09375024
v -1.5 3 -0.09375024
v -2.125 0 -0.09375024
v -2.125 -1.176198E-09 -0.1250002
v -1.500001 3 -0.1250002
v -2.125 3 -0.1250002
v -0.8749999 3 2.980232E-07
v -0.8749999 3 0.09375077
v -0.8749999 0 0.09375077
v -0.8749999 0 2.980232E-07
v -0.8749999 -1.176198E-09 0.1250008
v -0.8749999 3 0.1250008
v -0.8749999 3 -0.09374994
v -0.8749999 0 -0.09374994
v -0.8749999 -1.176198E-09 -0.1249999
v -0.8749999 3 -0.1249999
v -2.125 2.84375 0.125
v -1.499999 2.84375 0.1250004
v -2.125 2.8125 0.09375
v -1.499999 2.8125 0.09375036
v -2.125 2.84375 -0.1250002
v -1.500001 2.84375 -0.1250002
v -2.125 2.8125 -0.09375024
v -1.5 2.8125 -0.09375024
v -0.8749999 2.84375 0.1250008
v -0.8749999 2.8125 0.09375077
v -0.8749999 2.84375 -0.1249999
v -0.8749999 2.8125 -0.09374994
v -2.999991 2.25 0.09374976
v -2.999987 2.25 0
v -7.405863E-06 2.25 0.093751
v -1.192088E-05 2.25 5.364409E-07
v -8.575593E-06 2.25 -0.09374993
v -2.999992 2.25 -0.09375
v -2.124999 2.25 0.09375
v -1.499999 2.25 0.09375036
v -2.125 2.25 -0.09375024
v -1.5 2.25 -0.09375024
v -0.8750038 2.25 0.09375077
v -0.8750038 2.25 -0.09374994

vt 0 0.007798929
vt 0 0.06195078
vt 0.0090291 0.07097606
vt 0.009030396 0.007798929
vt 0.729715 0.5831522
vt 0.729715 0.5702925
vt 0.7254304 0.5574327
vt 0.725431 0.5831522
vt 0.7305041 0.3703637
vt 0.7397633 0.3611047
vt 0.6656904 0.3611047
vt 0.6749495 0.3703637
vt 0.4420713 0.3611047
vt 0.3772575 0.3703637
vt 0.4328122 0.3703637
vt 0.3679984 0.3611047
vt 0.1788752 0.9540699
vt 0.1788752 0.9179676
vt 0.1156981 0.9179688
vt 0.1156981 0.9540699
vt 0.04512649 0.07097606
vt 0.04512649 0.007798929
vt 0.1698499 0.9089751
vt 0.1156981 0.9089751
vt 0.1156981 0.9180001
vt 0.9821268 0.9540699
vt 0.9821268 0.9179662
vt 0.9550508 0.9540699
vt 0.9550508 0.9179668
vt 0.5819965 0.212778
vt 0.5477068 0.212778
vt 0.5477061 0.2384978
vt 0.5819965 0.2384978
vt 0.5434171 0.2256379
vt 0.5434171 0.2384978
vt 0.05386502 0.4435039
vt 0.08996628 0.4435044
vt 0.05386502 0.2268972
vt 0.08996756 0.2268972
vt 0.05386502 0.01029058
vt 0.08996882 0.01029003
vt 0.6894974 0.3989298
vt 0.6894986 0.6046866
vt 0.7237902 0.3989304
vt 0.7237902 0.6046866
vt 0.6809245 0.39893
vt 0.6809245 0.6046867
vt 0.09447855 0.01029015
vt 0.09447855 0.2268974
vt 0.09447867 0.4435045
vt 0.08996362 0.876719
vt 0.08996483 0.6601117
vt 0.05386502 0.8767173
vt 0.05386502 0.6601104
vt 0.4312826 0.6002761
vt 0.4312825 0.39452
vt 0.3969934 0.3945211
vt 0.3969947 0.6002778
vt 0.3884167 0.3945213
vt 0.3884166 0.600278
vt 0.09447867 0.6601117
vt 0.09447867 0.876719
vt 0.1077645 0.3611045
vt 0.3679996 0
vt 0.1077645 0
vt 0.1077643 0.3695576
vt 0.3679996 0.3695576
vt 0.3679996 0.8888727
vt 0.1077645 0.8425772
vt 0.1077645 0.8888727
vt 0.3679996 0.8425772
vt 0.5538822 0.8888727
vt 0.5538822 0.8425772
vt 0.3679996 0.832512
vt 0.1077643 0.832512
vt 0.5538821 0.832512
vt 0.9999989 1.41817E-07
vt 0.7397633 1.41817E-07
vt 0.9999989 0.3611047
vt 0.7397633 0.3695576
vt 0.9999987 0.3695576
vt 0.9999989 0.8425773
vt 0.7397633 0.8425773
vt 0.7397633 0.8888727
vt 0.9999989 0.8888727
vt 0.7397633 0.832512
vt 0.9999987 0.832512
vt 1 0.3611045
vt 1 0
vt 1 0.8888727
vt 1 0.8425772
vt 0.4420713 1.41817E-07
vt 0.6656904 1.41817E-07
vt 0.566963 0.9179671
vt 0.566963 0.9540699
vt 0.009028817 0.4590639
vt 0.04512649 0.4590639
vt 0.009028548 0.8471518
vt 0.04512649 0.8471518
vt 0.3679996 0.6658484
vt 0.1077668 0.6658484
vt 0.5538821 0.6658484
vt 0.7397631 0.6658484
vt 0.9999961 0.6658484
vt 0.5538806 0.6100835
vt 0.3679996 0.6100834
vt 0.7397631 0.6100836
vt 0.5078166 0.6038604
vt 0.4522619 0.3075695
vt 0.4522619 0.6038604
vt 0.5078166 0.3075695
vt 0.5985196 0.3075695
vt 0.6540742 0.6038604
vt 0.6540742 0.3075695
vt 0.5985196 0.6038604

vn 1 0 -2.288818E-05
vn -1 0 2.288818E-05
vn 0 1 0
vn 5.127819E-15 -1 -1.881917E-08
vn -2.724787E-07 0 1
vn -1.926714E-07 0.7071068 0.7071068
vn -1.926714E-07 -0.7071068 0.7071068
vn 2.724779E-07 0 -1
vn 1.926711E-07 0.7071068 -0.7071068
vn 9.633556E-08 -0.7071068 -0.7071068

usemtl Brown_snaps001
f 3/3/1 2/2/1 1/1/1
f 4/4/1 3/3/1 1/1/1
f 7/7/2 6/6/2 5/5/2
f 8/8/2 7/7/2 5/5/2
f 11/3/2 10/2/2 9/1/2
f 12/4/2 11/3/2 9/1/2
f 15/7/1 14/6/1 13/5/1
f 16/8/1 15/7/1 13/5/1
f 19/11/1 18/10/1 17/9/1
f 19/11/1 17/9/1 20/12/1
f 23/15/2 22/14/2 21/13/2
f 22/14/2 24/16/2 21/13/2
f 27/19/2 26/18/2 25/17/2
f 25/17/2 28/20/2 27/19/2
f 4/4/1 30/22/1 29/21/1
f 29/21/1 3/3/1 4/4/1
f 27/25/2 32/24/2 31/23/2
f 31/23/2 26/18/2 27/25/2
f 7/29/2 8/27/2 33/26/2
f 33/26/2 34/28/2 7/29/2
f 37/32/1 36/31/1 35/30/1
f 35/30/1 38/33/1 37/32/1
f 37/32/1 40/35/1 39/34/1
f 39/34/1 36/31/1 37/32/1
f 42/19/1 41/18/1 29/17/1
f 29/17/1 30/20/1 42/19/1
f 12/4/2 28/22/2 25/21/2
f 25/21/2 11/3/2 12/4/2
f 42/25/1 44/24/1 43/23/1
f 43/23/1 41/18/1 42/25/1
f 15/29/1 16/27/1 38/26/1
f 38/26/1 35/28/1 15/29/1
f 46/32/2 45/31/2 34/30/2
f 34/30/2 33/33/2 46/32/2
f 46/32/2 48/35/2 47/34/2
f 47/34/2 45/31/2 46/32/2
f 52/39/3 50/37/3 49/36/3
f 49/36/3 51/38/3 52/39/3
f 52/39/3 51/38/3 33/40/3
f 33/40/3 8/41/3 52/39/3
f 54/45/4 53/43/4 27/42/4
f 27/42/4 28/44/4 54/45/4
f 53/43/4 55/47/4 32/46/4
f 32/46/4 27/42/4 53/43/4
f 56/49/3 52/39/3 8/41/3
f 8/41/3 5/48/3 56/49/3
f 57/50/3 50/37/3 52/39/3
f 52/39/3 56/49/3 57/50/3
f 51/54/3 58/52/3 46/51/3
f 46/51/3 33/53/3 51/54/3
f 49/36/3 59/37/3 58/52/3
f 58/52/3 51/54/3 49/36/3
f 60/57/4 54/56/4 28/55/4
f 28/55/4 12/58/4 60/57/4
f 12/58/4 9/60/4 61/59/4
f 61/59/4 60/57/4 12/58/4
f 58/52/3 59/37/3 62/50/3
f 62/50/3 63/61/3 58/52/3
f 46/51/3 58/52/3 63/61/3
f 63/61/3 48/62/3 46/51/3
f 65/52/3 64/54/3 49/36/3
f 49/36/3 50/37/3 65/52/3
f 37/51/3 38/53/3 64/54/3
f 64/54/3 65/52/3 37/51/3
f 30/55/4 4/58/4 66/57/4
f 66/57/4 67/56/4 30/55/4
f 4/58/4 1/60/4 68/59/4
f 68/59/4 66/57/4 4/58/4
f 69/61/3 65/52/3 50/37/3
f 50/37/3 57/50/3 69/61/3
f 40/62/3 37/51/3 65/52/3
f 65/52/3 69/61/3 40/62/3
f 38/40/3 16/41/3 70/39/3
f 70/39/3 64/38/3 38/40/3
f 49/36/3 64/38/3 70/39/3
f 70/39/3 59/37/3 49/36/3
f 42/42/4 30/44/4 67/45/4
f 67/45/4 71/43/4 42/42/4
f 71/43/4 72/47/4 44/46/4
f 44/46/4 42/42/4 71/43/4
f 70/39/3 16/41/3 13/48/3
f 13/48/3 73/49/3 70/39/3
f 59/37/3 70/39/3 73/49/3
f 73/49/3 62/50/3 59/37/3
f 55/64/5 19/16/5 31/63/5
f 31/63/5 32/65/5 55/64/5
f 19/16/6 20/67/6 26/66/6
f 26/66/6 31/63/6 19/16/6
f 56/68/5 5/70/5 6/69/5
f 6/69/5 74/71/5 56/68/5
f 57/72/5 56/68/5 74/71/5
f 74/71/5 75/73/5 57/72/5
f 76/74/7 74/71/7 6/69/7
f 6/69/7 7/75/7 76/74/7
f 77/76/7 75/73/7 74/71/7
f 74/71/7 76/74/7 77/76/7
f 18/10/8 61/78/8 9/77/8
f 9/77/8 10/79/8 18/10/8
f 11/81/9 17/80/9 18/10/9
f 18/10/9 10/79/9 11/81/9
f 63/84/8 78/83/8 47/82/8
f 47/82/8 48/85/8 63/84/8
f 62/72/8 79/73/8 78/83/8
f 78/83/8 63/84/8 62/72/8
f 80/86/10 78/83/10 79/73/10
f 79/73/10 81/76/10 80/86/10
f 45/87/10 47/82/10 78/83/10
f 78/83/10 80/86/10 45/87/10
f 1/89/5 2/88/5 21/10/5
f 21/10/5 68/78/5 1/89/5
f 2/88/6 3/81/6 23/80/6
f 23/80/6 21/10/6 2/88/6
f 69/84/5 57/72/5 75/73/5
f 75/73/5 82/83/5 69/84/5
f 40/90/5 69/84/5 82/83/5
f 82/83/5 39/91/5 40/90/5
f 75/73/7 77/76/7 83/86/7
f 83/86/7 82/83/7 75/73/7
f 82/83/7 83/86/7 36/87/7
f 36/87/7 39/91/7 82/83/7
f 43/63/8 44/65/8 72/64/8
f 72/64/8 24/16/8 43/63/8
f 22/67/9 41/66/9 43/63/9
f 43/63/9 24/16/9 22/67/9
f 73/68/8 84/71/8 79/73/8
f 79/73/8 62/72/8 73/68/8
f 13/70/8 14/69/8 84/71/8
f 84/71/8 73/68/8 13/70/8
f 85/74/10 84/71/10 14/69/10
f 14/69/10 15/75/10 85/74/10
f 81/76/10 79/73/10 84/71/10
f 84/71/10 85/74/10 81/76/10
f 21/13/2 24/16/2 72/64/2
f 72/64/2 68/92/2 21/13/2
f 18/10/1 19/11/1 55/93/1
f 55/93/1 61/78/1 18/10/1

usemtl BrownLight_snaps001
f 7/29/2 34/28/2 87/95/2 86/94/2
f 86/94/2 87/95/2 25/17/2 26/18/2
f 3/3/1 29/21/1 89/97/1 88/96/1
f 88/96/1 89/97/1 35/99/1 36/98/1
f 90/94/1 15/29/1 35/28/1 89/95/1
f 41/18/1 90/94/1 89/95/1 29/17/1
f 87/97/2 91/96/2 11/3/2 25/21/2
f 34/99/2 45/98/2 91/96/2 87/97/2
f 20/67/5 92/100/5 86/101/5 26/66/5
f 92/100/5 76/74/5 7/75/5 86/101/5
f 93/102/5 77/76/5 76/74/5 92/100/5
f 91/104/8 94/103/8 17/80/8 11/81/8
f 45/87/8 80/86/8 94/103/8 91/104/8
f 80/86/8 81/76/8 95/102/8 94/103/8
f 96/103/5 83/86/5 77/76/5 93/102/5
f 23/80/5 3/81/5 88/104/5 96/103/5
f 96/103/5 88/104/5 36/87/5 83/86/5
f 81/76/8 85/74/8 97/100/8 95/102/8
f 97/100/8 90/101/8 41/66/8 22/67/8
f 85/74/8 15/75/8 90/101/8 97/100/8
f 96/106/4 93/105/4 95/102/4 97/100/4
f 93/105/4 92/107/4 94/103/4 95/102/4
f 23/111/2 96/108/2 97/110/2 22/109/2
f 92/115/1 20/112/1 17/114/1 94/113/1

